<svg xmlns="http://www.w3.org/2000/svg" viewBox="0 0 512 512"><path d="M448.155 81.821h-30.993V18.596C417.162 8.325 408.838 0 398.567 0H104.755C71.947 0 45.249 26.697 45.249 59.506v392.988c0 32.809 26.697 59.506 59.506 59.506h343.4c10.271 0 18.596-8.325 18.596-18.596V100.416c0-10.271-8.325-18.595-18.596-18.595zm-343.4-44.63h275.216v44.63H104.755c-12.719 0-22.315-9.595-22.315-22.315.001-12.1 10.216-22.315 22.315-22.315zm324.804 437.618H104.755c-12.1 0-22.315-10.221-22.315-22.315v-337.66c6.862 2.703 14.387 4.178 22.315 4.178h324.804v355.797z"/><path d="M236.165 101.036v153.662l-20.158-12.143a18.597 18.597 0 00-19.197 0l-20.151 12.143V101.036h-37.191v186.576a18.614 18.614 0 009.453 16.197 18.586 18.586 0 0018.744-.267l38.747-23.35 38.753 23.344a18.54 18.54 0 009.595 2.672 18.592 18.592 0 0018.596-18.596V101.036h-37.191z"/></svg>