<svg viewBox="0 0 32 37" fill="none" xmlns="http://www.w3.org/2000/svg">
<path fill-rule="evenodd" clip-rule="evenodd" d="M14.1852 4.77957C13.0676 4.16718 12.022 3.83245 11.2156 3.87508C10.8759 3.89311 10.6209 3.93002 10.4365 3.97414C10.4169 3.97872 10.3974 3.98367 10.378 3.98899C10.3188 4.62217 9.84429 5.16075 9.19337 5.26936C8.41802 5.39875 7.68577 4.8693 7.55753 4.08678C7.48612 3.65024 7.51189 3.16724 7.71915 2.69802C7.92619 2.22924 8.26464 1.8873 8.63267 1.64908C9.31464 1.20745 10.2003 1.05345 11.0665 1.00763C12.6503 0.923842 14.2541 1.54981 15.5432 2.25618C16.8634 2.97972 18.0379 3.89057 18.8181 4.6086C19.63 5.35548 20.3749 6.32339 20.4994 7.53969C20.6303 8.82069 20.0386 9.95554 19.0902 10.9211C18.8129 11.2041 18.5039 11.4539 18.1693 11.6654C21.0396 13.4345 23.1571 15.8438 24.4501 18.9113C25.1295 20.5238 25.3701 22.1971 24.2939 23.4174C23.8017 23.9755 23.1609 24.268 22.5721 24.4281C21.9814 24.5885 21.343 24.6428 20.7315 24.6513C19.7327 24.6653 18.5992 24.5544 17.5851 24.4551C17.3777 24.4347 17.1753 24.415 16.9799 24.3968C15.7226 24.2799 14.8072 24.2381 14.2465 24.3569C12.9303 24.6352 11.7675 25.322 11.1153 26.6387C10.4434 27.9952 10.1658 30.3115 11.3022 34.1533C11.5268 34.9131 11.0986 35.7128 10.3456 35.9395C9.59267 36.1665 8.8002 35.7342 8.5752 34.9744C7.33189 30.7704 7.44682 27.6223 8.56992 25.3549C9.71267 23.0477 11.7476 21.9512 13.6627 21.5463C14.7178 21.3231 16.076 21.429 17.241 21.5374C17.4696 21.5586 17.6948 21.5806 17.9166 21.6021C18.9288 21.7005 19.8662 21.7917 20.692 21.7802C21.1858 21.7732 21.562 21.7287 21.8325 21.6551C21.9634 21.6197 22.0496 21.5825 22.1033 21.5528C22.1254 21.5409 22.1463 21.5268 22.1656 21.5108L22.166 21.5106L22.1669 21.5077C22.1713 21.4951 22.1859 21.4449 22.1849 21.338C22.1827 21.1076 22.1092 20.6944 21.8314 20.0351C20.3272 16.466 17.4189 13.8917 12.8849 12.3686C12.1843 12.1332 11.7784 11.3961 11.9506 10.6717C12.1228 9.94684 12.8158 9.47572 13.5459 9.58645C15.4452 9.87493 16.483 9.49693 17.069 8.90002C17.6728 8.28487 17.6808 7.95248 17.669 7.83475C17.65 7.65233 17.5091 7.29002 16.9006 6.73024C16.2609 6.14139 15.2713 5.37478 14.185 4.77957H14.1852Z"/>
<path fill-rule="evenodd" clip-rule="evenodd" d="M19.5322 22.8714C19.6752 22.7504 19.8407 22.6591 20.0191 22.6027C20.1975 22.5462 20.3852 22.5257 20.5715 22.5424C20.7577 22.5591 20.9389 22.6127 21.1045 22.7C21.2701 22.7873 21.4168 22.9066 21.5363 23.0511L29.837 33.0613C30.3413 33.6692 30.2616 34.5748 29.6589 35.0836C29.5158 35.2046 29.3503 35.296 29.172 35.3524C28.9936 35.4089 28.8059 35.4294 28.6196 35.4127C28.4333 35.396 28.2521 35.3424 28.0865 35.2551C27.921 35.1678 27.7742 35.0485 27.6548 34.904L19.3541 24.894C18.8498 24.2858 18.9294 23.3803 19.5322 22.8714ZM22.0084 14.6623C22.2013 14.6945 22.4986 14.7675 22.9232 14.9158C24.1989 15.3615 26.129 16.3056 28.7565 17.8032C29.4406 18.1931 30.3087 17.9495 30.6951 17.2589C31.0815 16.5684 30.8401 15.6926 30.156 15.3027C27.4997 13.7888 25.3847 12.7371 23.8543 12.2023C23.1096 11.9421 22.3684 11.7548 21.7173 11.7692C21.3825 11.7766 20.9684 11.839 20.575 12.0642C20.1463 12.3082 19.8266 12.7073 19.6811 13.18C19.4447 13.9362 19.8607 14.7425 20.6101 14.9809C21.1165 15.1421 21.6453 15.0028 22.0082 14.6623H22.0084ZM21.7642 14.6411C21.7642 14.6411 21.7661 14.6407 21.7701 14.6405C21.7682 14.6407 21.7662 14.6408 21.7642 14.6409V14.6411ZM1.13542 9.24303C1.46985 8.52543 2.31725 8.21721 3.02838 8.55449L10.0881 11.9032C10.7992 12.2405 11.1049 13.0958 10.7705 13.8134C10.4363 14.531 9.58887 14.8394 8.87753 14.5022L1.81802 11.1534C1.10669 10.8161 0.801404 9.96085 1.13542 9.24303Z"/>
</svg>
