<svg width="240" height="240" viewBox="0 0 240 240" fill="none" xmlns="http://www.w3.org/2000/svg">
<path fill-rule="evenodd" clip-rule="evenodd" d="M110.046 47.1934C104.024 43.9214 98.3904 42.133 94.0452 42.3608C92.2147 42.4571 90.8406 42.6543 89.8468 42.8901C89.7353 42.9161 89.6305 42.9422 89.5315 42.9694C89.2128 46.3524 86.6559 49.23 83.1486 49.8102C78.9707 50.5016 75.0251 47.6728 74.3341 43.4919C73.9493 41.1595 74.0882 38.5789 75.2049 36.0719C76.3205 33.5672 78.1442 31.7403 80.1273 30.4676C83.802 28.108 88.5741 27.2852 93.2415 27.0404C101.776 26.5927 110.417 29.9372 117.364 33.7112C124.478 37.577 130.806 42.4435 135.01 46.2799C139.385 50.2704 143.399 55.4418 144.069 61.9403C144.775 68.7846 141.586 74.8479 136.476 80.0069C134.982 81.5191 133.317 82.8536 131.514 83.9837C146.98 93.4358 158.39 106.308 165.357 122.697C169.018 131.313 170.315 140.253 164.516 146.773C161.863 149.755 158.411 151.318 155.238 152.173C152.055 153.03 148.615 153.32 145.32 153.366C139.938 153.44 133.831 152.848 128.366 152.317C127.248 152.208 126.158 152.103 125.105 152.006C118.33 151.381 113.398 151.158 110.376 151.792C103.284 153.279 97.0187 156.949 93.5045 163.984C89.8844 171.231 88.3886 183.607 94.5119 204.133C95.722 208.193 93.4145 212.466 89.3573 213.677C85.3001 214.89 81.03 212.58 79.8177 208.521C73.1183 186.059 73.7375 169.239 79.7892 157.125C85.9467 144.798 96.9117 138.939 107.231 136.776C112.916 135.583 120.235 136.149 126.512 136.728C127.744 136.841 128.957 136.959 130.152 137.074C135.606 137.6 140.658 138.087 145.107 138.026C147.768 137.988 149.795 137.75 151.252 137.357C151.958 137.168 152.423 136.97 152.712 136.811C152.831 136.747 152.943 136.672 153.048 136.586L153.05 136.585L153.055 136.569C153.078 136.503 153.157 136.234 153.151 135.663C153.14 134.432 152.744 132.224 151.247 128.702C143.141 109.632 127.47 95.8781 103.04 87.7408C99.2647 86.4828 97.0779 82.5444 98.0056 78.6741C98.9334 74.8015 102.667 72.2843 106.602 72.8759C116.836 74.4173 122.427 72.3976 125.585 69.2084C128.839 65.9218 128.882 64.1458 128.818 63.5168C128.716 62.5421 127.957 60.6064 124.678 57.6155C121.231 54.4694 115.9 50.3735 110.046 47.1934Z" fill="black"/>
<path fill-rule="evenodd" clip-rule="evenodd" d="M138.858 143.856C139.629 143.21 140.52 142.722 141.481 142.42C142.442 142.118 143.454 142.009 144.458 142.098C145.462 142.187 146.438 142.473 147.33 142.94C148.222 143.406 149.013 144.044 149.656 144.816L194.384 198.299C197.101 201.547 196.672 206.385 193.424 209.104C192.653 209.751 191.761 210.239 190.8 210.54C189.839 210.842 188.828 210.951 187.824 210.862C186.82 210.773 185.844 210.487 184.952 210.02C184.059 209.554 183.269 208.916 182.625 208.144L137.898 154.662C135.181 151.413 135.61 146.575 138.858 143.856ZM152.201 99.9955C153.24 100.168 154.842 100.558 157.13 101.35C164.004 103.731 174.404 108.776 188.562 116.777C192.248 118.86 196.926 117.559 199.008 113.869C201.09 110.18 199.789 105.5 196.103 103.417C181.79 95.3285 170.393 89.7094 162.147 86.8522C158.134 85.4616 154.141 84.4609 150.632 84.538C148.828 84.5776 146.596 84.9108 144.477 86.1144C142.167 87.4178 140.444 89.5501 139.66 92.0758C138.386 96.1161 140.628 100.424 144.666 101.698C147.394 102.559 150.245 101.815 152.201 99.9955ZM150.885 99.8822C150.885 99.8822 150.895 99.8799 150.917 99.8788C150.906 99.8801 150.895 99.882 150.885 99.8822ZM39.7294 71.041C41.5315 67.207 46.0976 65.5602 49.9294 67.3622L87.9696 85.2542C91.8014 87.0562 93.4487 91.6258 91.6466 95.4599C89.8457 99.294 85.2796 100.942 81.4467 99.1399L43.4076 81.2479C39.5746 79.4459 37.9296 74.8763 39.7294 71.041Z" fill="black"/>
</svg>
