<svg viewBox="0 0 226 43" fill="none" xmlns="http://www.w3.org/2000/svg">
<path d="M52.3489 19.3337V17.703C52.3489 15.8814 52.3489 14.0598 52.3489 12.2382C52.3489 10.4166 52.3199 8.59496 52.2619 6.77335L49 6.42077V4.04092H63.0046V6.42077L59.7426 6.77335C59.6846 8.56558 59.6557 10.3725 59.6557 12.1941C59.6557 14.0157 59.6557 15.852 59.6557 17.703V19.2896C59.6557 21.1406 59.6557 22.9769 59.6557 24.7985C59.6557 26.6201 59.6846 28.4418 59.7426 30.2634L63.0046 30.6159V32.9958H49V30.6159L52.2619 30.2634C52.3199 28.4711 52.3489 26.6642 52.3489 24.8426C52.3489 23.021 52.3489 21.1847 52.3489 19.3337Z" fill="black"/>
<path d="M81.8235 11.0042C83.7082 11.0042 85.216 11.6359 86.3468 12.8993C87.5066 14.1333 88.0865 16.0283 88.0865 18.5845V23.7408C88.0865 24.7104 88.0865 25.8122 88.0865 27.0462C88.0865 28.2508 88.101 29.3966 88.13 30.4837L90.3046 30.9244V32.9958H78.8226V30.9244L81.0842 30.4397C81.1132 29.3526 81.1277 28.2067 81.1277 27.0021C81.1277 25.7681 81.1277 24.681 81.1277 23.7408V19.1133C81.1277 17.703 80.9392 16.7188 80.5623 16.1605C80.1853 15.5729 79.5764 15.2791 78.7356 15.2791C77.5758 15.2791 76.329 15.8227 74.9952 16.9098V23.7408C74.9952 24.681 74.9952 25.7681 74.9952 27.0021C74.9952 28.2361 75.0097 29.3966 75.0387 30.4837L77.0829 30.9244V32.9958H65.6444V30.9244L67.9929 30.3956C68.0219 29.3379 68.0364 28.2067 68.0364 27.0021C68.0364 25.7681 68.0364 24.681 68.0364 23.7408V21.1847C68.0364 20.5677 68.0364 20.0388 68.0364 19.5981C68.0364 19.1574 68.0219 18.7608 67.9929 18.4082C67.9929 18.0262 67.9785 17.659 67.9495 17.3064C67.9495 16.9244 67.935 16.5131 67.906 16.0724L65.2529 15.6758V13.957L73.8209 11.0042L74.6038 11.489L74.8648 14.6621C76.0246 13.3106 77.1554 12.3704 78.2572 11.8416C79.359 11.2833 80.5478 11.0042 81.8235 11.0042Z" fill="black"/>
<path d="M99.8386 22.4627C99.8386 24.9014 100.259 26.7377 101.1 27.9717C101.941 29.2057 103.028 29.8227 104.362 29.8227C105.348 29.8227 106.246 29.4848 107.058 28.809V15.6758C106.275 15.0588 105.42 14.7503 104.492 14.7503C103.159 14.7503 102.042 15.382 101.143 16.6453C100.274 17.8793 99.8386 19.8185 99.8386 22.4627ZM107.624 33.4806L107.276 30.9244C105.594 32.7461 103.55 33.6569 101.143 33.6569C99.9256 33.6569 98.7803 33.4218 97.7075 32.9517C96.6636 32.4523 95.7503 31.7324 94.9674 30.7922C94.1846 29.852 93.5757 28.6915 93.1408 27.3106C92.7058 25.9297 92.4884 24.3431 92.4884 22.5509C92.4884 20.7587 92.7493 19.1574 93.2712 17.7471C93.8221 16.3075 94.5325 15.0881 95.4024 14.0892C96.3012 13.0902 97.3305 12.3263 98.4903 11.7975C99.6501 11.2686 100.839 11.0042 102.057 11.0042C103.246 11.0042 104.246 11.2099 105.058 11.6212C105.899 12.0325 106.652 12.6201 107.319 13.384V5.27492L104.275 4.83421V2.98321L113.452 1L114.148 1.44071L113.974 7.6107V30.4397L116.105 30.9244V32.9958L107.624 33.4806Z" fill="black"/>
<path d="M129.49 11.0042C130.91 11.0042 132.186 11.2392 133.317 11.7093C134.448 12.1794 135.39 12.8405 136.144 13.6925C136.898 14.5152 137.478 15.4995 137.884 16.6453C138.29 17.7912 138.493 19.0252 138.493 20.3473C138.493 21.1994 138.406 21.978 138.232 22.6831H125.662C125.749 23.8583 125.952 24.872 126.271 25.724C126.59 26.5761 127.01 27.2812 127.532 27.8395C128.054 28.3977 128.649 28.809 129.316 29.0735C130.011 29.3379 130.736 29.4701 131.49 29.4701C132.679 29.4701 133.679 29.2497 134.491 28.809C135.332 28.3389 136.086 27.766 136.753 27.0902L138.275 28.5005C137.376 30.2634 136.158 31.5708 134.622 32.4229C133.085 33.2455 131.258 33.6569 129.142 33.6569C127.547 33.6569 126.083 33.4071 124.749 32.9077C123.444 32.3788 122.313 31.6296 121.356 30.66C120.4 29.6905 119.646 28.5152 119.095 27.1343C118.573 25.724 118.312 24.1375 118.312 22.3746C118.312 20.5236 118.631 18.893 119.269 17.4827C119.907 16.0724 120.748 14.8972 121.791 13.957C122.835 12.9874 124.024 12.2529 125.358 11.7534C126.721 11.2539 128.098 11.0042 129.49 11.0042ZM129.055 13.2959C128.649 13.2959 128.243 13.4134 127.837 13.6485C127.46 13.8835 127.112 14.2802 126.793 14.8384C126.503 15.3966 126.242 16.1312 126.01 17.042C125.807 17.9234 125.691 19.0399 125.662 20.3914H129.359C130.403 20.3914 131.099 20.1857 131.447 19.7744C131.824 19.3337 132.012 18.6139 132.012 17.6149C132.012 16.1459 131.722 15.0588 131.142 14.3536C130.562 13.6485 129.867 13.2959 129.055 13.2959Z" fill="black"/>
<path d="M150.431 40.3998C152.605 40.3998 154.243 40.0766 155.345 39.4302C156.447 38.7838 156.998 37.9759 156.998 37.0063C156.998 36.3599 156.766 35.7723 156.302 35.2434C155.838 34.744 155.012 34.4942 153.823 34.4942H149.256C147.661 34.4942 146.342 34.362 145.298 34.0976C145.066 34.5089 144.892 34.9056 144.776 35.2875C144.661 35.6695 144.603 36.1249 144.603 36.6537C144.603 37.9759 145.066 38.9307 145.994 39.5184C146.951 40.106 148.43 40.3998 150.431 40.3998ZM141.341 18.1438C141.341 17.1154 141.515 16.1752 141.862 15.3232C142.239 14.4418 142.805 13.6779 143.559 13.0315C144.313 12.3851 145.255 11.8856 146.386 11.5331C147.546 11.1805 148.894 11.0042 150.431 11.0042C151.996 11.0042 153.344 11.1805 154.475 11.5331C155.635 11.8856 156.592 12.3851 157.346 13.0315L162.217 10.9161L162.913 11.3568V14.7503H158.781C159.303 15.7198 159.564 16.851 159.564 18.1438C159.564 19.1427 159.375 20.0682 158.999 20.9203C158.622 21.7723 158.056 22.5215 157.302 23.1679C156.548 23.7849 155.592 24.2844 154.432 24.6663C153.301 25.0189 151.967 25.1952 150.431 25.1952C148.923 25.1952 147.603 25.0189 146.473 24.6663C146.125 25.2833 145.951 25.9591 145.951 26.6936C145.951 27.1931 146.139 27.6044 146.516 27.9276C146.893 28.2214 147.546 28.3683 148.473 28.3683H153.562C155.215 28.3683 156.606 28.5299 157.737 28.8531C158.868 29.1469 159.781 29.5876 160.477 30.1752C161.202 30.7335 161.71 31.4092 162 32.2025C162.318 32.9664 162.478 33.8332 162.478 34.8027C162.478 35.9192 162.202 36.9622 161.652 37.9318C161.101 38.9307 160.289 39.7975 159.216 40.532C158.172 41.2959 156.853 41.8982 155.258 42.3389C153.663 42.7796 151.822 43 149.735 43C147.937 43 146.429 42.8531 145.211 42.5593C144.023 42.2949 143.066 41.9129 142.341 41.4134C141.616 40.9433 141.109 40.3998 140.819 39.7828C140.529 39.1658 140.384 38.5194 140.384 37.8437C140.384 35.9633 141.587 34.4502 143.994 33.3043C143.095 32.9223 142.442 32.4229 142.036 31.8059C141.66 31.1889 141.471 30.5131 141.471 29.7786C141.471 28.7503 141.761 27.7807 142.341 26.8699C142.921 25.9297 143.747 24.9895 144.82 24.0493C143.631 23.4323 142.747 22.6097 142.167 21.5813C141.616 20.553 141.341 19.4071 141.341 18.1438ZM150.474 13.1196C149.488 13.1196 148.749 13.5603 148.256 14.4418C147.763 15.2938 147.517 16.5131 147.517 18.0997C147.517 19.6863 147.734 20.9203 148.169 21.8017C148.633 22.6831 149.372 23.1238 150.387 23.1238C151.402 23.1238 152.156 22.6831 152.649 21.8017C153.171 20.8909 153.431 19.6422 153.431 18.0556C153.431 16.4984 153.171 15.2938 152.649 14.4418C152.156 13.5603 151.431 13.1196 150.474 13.1196Z" fill="black"/>
<path d="M172.219 33.6569C169.464 33.6569 166.942 32.9811 164.651 31.6296L164.782 26.2529H168.261L169 30.6159C169.522 30.8216 170.044 30.9832 170.566 31.1007C171.088 31.1889 171.653 31.2329 172.262 31.2329C173.509 31.2329 174.466 31.0273 175.133 30.6159C175.8 30.1752 176.133 29.5142 176.133 28.6327C176.133 27.957 175.887 27.3694 175.394 26.8699C174.901 26.3704 173.93 25.915 172.48 25.5037L170.131 24.7985C168.421 24.2991 167.116 23.5058 166.217 22.4187C165.318 21.3022 164.869 19.9066 164.869 18.2319C164.869 17.2329 165.057 16.2928 165.434 15.4113C165.84 14.5299 166.42 13.766 167.174 13.1196C167.957 12.4439 168.913 11.9297 170.044 11.5771C171.175 11.1952 172.48 11.0042 173.959 11.0042C175.263 11.0042 176.452 11.1658 177.525 11.489C178.598 11.7828 179.7 12.2235 180.83 12.8111L180.526 17.6149H177.047L176.177 13.8248C175.829 13.6779 175.466 13.5897 175.089 13.5603C174.712 13.5016 174.277 13.4722 173.785 13.4722C172.799 13.4722 172.001 13.6779 171.392 14.0892C170.813 14.5005 170.523 15.1175 170.523 15.9402C170.523 16.234 170.566 16.5131 170.653 16.7775C170.769 17.042 170.958 17.2917 171.219 17.5268C171.479 17.7618 171.842 17.9969 172.306 18.2319C172.799 18.4376 173.422 18.6579 174.176 18.893L176.307 19.51C178.395 20.127 179.874 21.0084 180.743 22.1543C181.642 23.2707 182.092 24.6663 182.092 26.341C182.092 28.6621 181.207 30.469 179.439 31.7618C177.699 33.0252 175.292 33.6569 172.219 33.6569Z" fill="black"/>
<path d="M195.578 11.0042C196.998 11.0042 198.274 11.2392 199.405 11.7093C200.536 12.1794 201.478 12.8405 202.232 13.6925C202.986 14.5152 203.566 15.4995 203.972 16.6453C204.378 17.7912 204.581 19.0252 204.581 20.3473C204.581 21.1994 204.494 21.978 204.32 22.6831H191.75C191.837 23.8583 192.04 24.872 192.359 25.724C192.678 26.5761 193.099 27.2812 193.621 27.8395C194.142 28.3977 194.737 28.809 195.404 29.0735C196.1 29.3379 196.824 29.4701 197.578 29.4701C198.767 29.4701 199.767 29.2497 200.579 28.809C201.42 28.3389 202.174 27.766 202.841 27.0902L204.363 28.5005C203.464 30.2634 202.247 31.5708 200.71 32.4229C199.173 33.2455 197.346 33.6569 195.23 33.6569C193.635 33.6569 192.171 33.4071 190.837 32.9077C189.532 32.3788 188.401 31.6296 187.445 30.66C186.488 29.6905 185.734 28.5152 185.183 27.1343C184.661 25.724 184.4 24.1375 184.4 22.3746C184.4 20.5236 184.719 18.893 185.357 17.4827C185.995 16.0724 186.836 14.8972 187.88 13.957C188.923 12.9874 190.112 12.2529 191.446 11.7534C192.809 11.2539 194.186 11.0042 195.578 11.0042ZM195.143 13.2959C194.737 13.2959 194.331 13.4134 193.925 13.6485C193.548 13.8835 193.2 14.2802 192.881 14.8384C192.591 15.3966 192.33 16.1312 192.098 17.042C191.895 17.9234 191.779 19.0399 191.75 20.3914H195.447C196.491 20.3914 197.187 20.1857 197.535 19.7744C197.912 19.3337 198.1 18.6139 198.1 17.6149C198.1 16.1459 197.81 15.0588 197.23 14.3536C196.651 13.6485 195.955 13.2959 195.143 13.2959Z" fill="black"/>
<path d="M206.994 32.9958V30.9244L209.386 30.4397C209.415 29.3526 209.429 28.2067 209.429 27.0021C209.429 25.7681 209.429 24.681 209.429 23.7408V21.1406C209.429 20.5236 209.429 20.0094 209.429 19.5981C209.429 19.1574 209.415 18.7461 209.386 18.3641C209.386 17.9822 209.371 17.6149 209.342 17.2623C209.342 16.9098 209.328 16.5131 209.299 16.0724L206.646 15.6758V13.957L215.214 11.0042L215.997 11.489L216.388 16.6894C216.678 15.7492 217.041 14.9265 217.475 14.2214C217.939 13.4869 218.432 12.8846 218.954 12.4145C219.476 11.9444 220.013 11.5918 220.563 11.3568C221.143 11.1217 221.694 11.0042 222.216 11.0042C223.173 11.0042 223.999 11.2833 224.695 11.8416C225.391 12.3704 225.826 13.1784 226 14.2655C225.942 15.4113 225.623 16.3074 225.043 16.9538C224.492 17.5708 223.782 17.8793 222.912 17.8793C222.245 17.8793 221.651 17.7177 221.129 17.3945C220.607 17.042 220.085 16.5131 219.563 15.808L219.302 15.4554C218.635 16.0724 218.041 16.851 217.519 17.7912C216.997 18.7314 216.62 19.7156 216.388 20.744V23.7408C216.388 24.6516 216.388 25.6946 216.388 26.8699C216.388 28.0451 216.403 29.1469 216.432 30.1752L219.868 30.9244V32.9958H206.994Z" fill="black"/>
<path fill-rule="evenodd" clip-rule="evenodd" d="M14.1852 4.77957C13.0676 4.16718 12.022 3.83245 11.2156 3.87508C10.8759 3.89311 10.6209 3.93002 10.4365 3.97414C10.4169 3.97872 10.3974 3.98367 10.378 3.98899C10.3188 4.62217 9.84429 5.16075 9.19337 5.26936C8.41802 5.39875 7.68577 4.8693 7.55753 4.08678C7.48612 3.65024 7.51189 3.16724 7.71915 2.69802C7.92619 2.22924 8.26464 1.8873 8.63267 1.64908C9.31464 1.20745 10.2003 1.05345 11.0665 1.00763C12.6503 0.923842 14.2541 1.54981 15.5432 2.25617C16.8634 2.97972 18.0379 3.89057 18.8181 4.6086C19.63 5.35548 20.3749 6.32339 20.4994 7.53969C20.6303 8.82069 20.0386 9.95554 19.0902 10.9211C18.8129 11.2041 18.5039 11.4539 18.1693 11.6654C21.0396 13.4345 23.1571 15.8438 24.4501 18.9113C25.1295 20.5238 25.3701 22.1971 24.2939 23.4174C23.8017 23.9755 23.1609 24.268 22.5721 24.4281C21.9814 24.5885 21.343 24.6428 20.7315 24.6513C19.7327 24.6653 18.5992 24.5544 17.5851 24.4551C17.3777 24.4347 17.1753 24.415 16.9799 24.3968C15.7226 24.2799 14.8072 24.2381 14.2465 24.3569C12.9303 24.6352 11.7675 25.322 11.1153 26.6387C10.4434 27.9952 10.1658 30.3115 11.3022 34.1533C11.5268 34.9131 11.0986 35.7128 10.3456 35.9395C9.59267 36.1665 8.8002 35.7342 8.5752 34.9744C7.33189 30.7704 7.44682 27.6223 8.56992 25.3549C9.71267 23.0477 11.7476 21.9512 13.6627 21.5463C14.7178 21.3231 16.076 21.429 17.241 21.5374C17.4696 21.5586 17.6948 21.5806 17.9166 21.6021C18.9288 21.7005 19.8662 21.7917 20.692 21.7802C21.1858 21.7732 21.562 21.7287 21.8325 21.6551C21.9634 21.6197 22.0496 21.5825 22.1033 21.5528C22.1254 21.5409 22.1463 21.5268 22.1656 21.5108L22.166 21.5106L22.1669 21.5077C22.1713 21.4951 22.1859 21.4449 22.1849 21.338C22.1827 21.1076 22.1092 20.6944 21.8314 20.0351C20.3272 16.466 17.4189 13.8917 12.8849 12.3686C12.1843 12.1332 11.7784 11.3961 11.9506 10.6717C12.1228 9.94684 12.8158 9.47572 13.5459 9.58645C15.4452 9.87493 16.4829 9.49693 17.069 8.90002C17.6728 8.28487 17.6808 7.95248 17.669 7.83475C17.65 7.65233 17.5091 7.29002 16.9006 6.73024C16.2609 6.14139 15.2713 5.37478 14.185 4.77957H14.1852Z" fill="black" stroke="black"/>
<path fill-rule="evenodd" clip-rule="evenodd" d="M19.5322 22.8714C19.6752 22.7504 19.8407 22.6591 20.0191 22.6027C20.1975 22.5462 20.3852 22.5257 20.5715 22.5424C20.7577 22.5591 20.9389 22.6127 21.1045 22.7C21.2701 22.7873 21.4168 22.9066 21.5363 23.0511L29.837 33.0613C30.3413 33.6692 30.2616 34.5748 29.6589 35.0836C29.5158 35.2046 29.3503 35.296 29.172 35.3524C28.9936 35.4089 28.8059 35.4294 28.6196 35.4127C28.4333 35.396 28.2521 35.3424 28.0865 35.2551C27.921 35.1678 27.7742 35.0485 27.6548 34.904L19.3541 24.894C18.8498 24.2858 18.9294 23.3803 19.5322 22.8714V22.8714ZM22.0084 14.6623C22.2013 14.6945 22.4986 14.7675 22.9232 14.9158C24.1989 15.3615 26.129 16.3056 28.7565 17.8032C29.4406 18.1931 30.3087 17.9495 30.6951 17.2589C31.0815 16.5684 30.8401 15.6926 30.156 15.3027C27.4997 13.7888 25.3847 12.7371 23.8543 12.2023C23.1096 11.9421 22.3684 11.7548 21.7173 11.7692C21.3825 11.7766 20.9684 11.839 20.575 12.0642C20.1463 12.3082 19.8266 12.7073 19.6811 13.18C19.4447 13.9362 19.8607 14.7425 20.6101 14.9809C21.1165 15.1421 21.6453 15.0028 22.0082 14.6623H22.0084ZM21.7642 14.6411C21.7642 14.6411 21.7661 14.6407 21.7701 14.6405C21.7682 14.6407 21.7662 14.6408 21.7642 14.6409V14.6411ZM1.13542 9.24303C1.46985 8.52543 2.31725 8.21721 3.02838 8.55449L10.0881 11.9032C10.7992 12.2405 11.1049 13.0958 10.7705 13.8134C10.4363 14.531 9.58887 14.8394 8.87753 14.5022L1.81802 11.1534C1.10669 10.8161 0.801404 9.96085 1.13542 9.24303Z" fill="black" stroke="black"/>
</svg>
